<svg xmlns="http://www.w3.org/2000/svg" width="1280" height="860" viewBox="0 0 1280 860">
  <rect width="1280" height="860" fill="#eef2f6"/>
  <rect x="0" y="0" width="1280" height="46" fill="#1f2937"/>
  <text x="24" y="29" font-family="Inter,Segoe UI,sans-serif" font-size="14" font-weight="700" fill="#ffffff" text-anchor="start">WIREFRAME — Landing Page</text>
  <text x="1256" y="29" font-family="Inter,Segoe UI,sans-serif" font-size="12" font-weight="500" fill="#9aa4b2" text-anchor="end">index.html</text>
  <rect x="24" y="66" width="1232" height="58" rx="14" fill="#ffffff" stroke="#cbd5e1" stroke-width="1.5"/><rect x="44" y="80" width="30" height="30" rx="8" fill="#b8c2cd" stroke="#b8c2cd" stroke-width="1.5"/><text x="86" y="100" font-family="Inter,Segoe UI,sans-serif" font-size="14" font-weight="700" fill="#5b6675" text-anchor="start">WinniPresence</text><rect x="1130" y="80" width="100" height="30" rx="15" fill="#b8c2cd" stroke="#b8c2cd" stroke-width="1.5"/><text x="1180" y="99" font-family="Inter,Segoe UI,sans-serif" font-size="12" font-weight="600" fill="#ffffff" text-anchor="middle">Masuk</text><rect x="64" y="190" width="120" height="22" rx="11" fill="#e7ecf2"/><text x="64" y="206" font-family="Inter,Segoe UI,sans-serif" font-size="11" font-weight="600" fill="#7a8694" text-anchor="start">badge: Wireframe Demo</text><rect x="64" y="240" width="520" height="30" rx="15" fill="#cdd6e0"/><rect x="64" y="286" width="460" height="30" rx="15" fill="#cdd6e0"/><rect x="64" y="332" width="380" height="30" rx="15" fill="#cdd6e0"/><rect x="64" y="392" width="520" height="12" rx="6" fill="#e7ecf2"/><rect x="64" y="416" width="480" height="12" rx="6" fill="#e7ecf2"/><rect x="64" y="456" width="150" height="44" rx="22" fill="#b8c2cd" stroke="#b8c2cd" stroke-width="1.5"/><text x="139" y="482" font-family="Inter,Segoe UI,sans-serif" font-size="12" font-weight="600" fill="#ffffff" text-anchor="middle">Mulai Demo</text><rect x="230" y="456" width="200" height="44" rx="22" fill="#ffffff" stroke="#cbd5e1" stroke-width="1.5"/><text x="330" y="482" font-family="Inter,Segoe UI,sans-serif" font-size="12" font-weight="600" fill="#7a8694" text-anchor="middle">Dashboard Karyawan</text><rect x="720" y="180" width="480" height="360" rx="18" fill="#ffffff" stroke="#cbd5e1" stroke-width="1.5"/><circle cx="760" cy="220" r="20" fill="#cdd6e0"/><rect x="792" y="210" width="120" height="10" rx="5" fill="#e7ecf2"/><rect x="792" y="228" width="80" height="8" rx="4" fill="#e7ecf2"/><circle cx="960" cy="360" r="70" fill="#e7ecf2" stroke="#cdd6e0" stroke-width="2" stroke-dasharray="6 6"/><text x="960" y="366" font-family="Inter,Segoe UI,sans-serif" font-size="12" font-weight="600" fill="#7a8694" text-anchor="middle">Face Scan</text><rect x="760" y="470" width="120" height="50" rx="10" fill="#e7ecf2"/><rect x="900" y="470" width="120" height="50" rx="10" fill="#e7ecf2"/><rect x="1040" y="470" width="120" height="50" rx="10" fill="#e7ecf2"/><text x="640" y="600" font-family="Inter,Segoe UI,sans-serif" font-size="18" font-weight="700" fill="#5b6675" text-anchor="middle">Fitur Utama</text><rect x="64" y="640" width="360" height="150" rx="16" fill="#ffffff" stroke="#cbd5e1" stroke-width="1.5"/><rect x="84" y="660" width="40" height="40" rx="10" fill="#e7ecf2" stroke="#e7ecf2" stroke-width="1.5"/><rect x="84" y="720" width="180" height="12" rx="6" fill="#e7ecf2"/><rect x="84" y="744" width="300" height="8" rx="4" fill="#e7ecf2"/><rect x="84" y="762" width="260" height="8" rx="4" fill="#e7ecf2"/><rect x="456" y="640" width="360" height="150" rx="16" fill="#ffffff" stroke="#cbd5e1" stroke-width="1.5"/><rect x="476" y="660" width="40" height="40" rx="10" fill="#e7ecf2" stroke="#e7ecf2" stroke-width="1.5"/><rect x="476" y="720" width="180" height="12" rx="6" fill="#e7ecf2"/><rect x="476" y="744" width="300" height="8" rx="4" fill="#e7ecf2"/><rect x="476" y="762" width="260" height="8" rx="4" fill="#e7ecf2"/><rect x="848" y="640" width="360" height="150" rx="16" fill="#ffffff" stroke="#cbd5e1" stroke-width="1.5"/><rect x="868" y="660" width="40" height="40" rx="10" fill="#e7ecf2" stroke="#e7ecf2" stroke-width="1.5"/><rect x="868" y="720" width="180" height="12" rx="6" fill="#e7ecf2"/><rect x="868" y="744" width="300" height="8" rx="4" fill="#e7ecf2"/><rect x="868" y="762" width="260" height="8" rx="4" fill="#e7ecf2"/>
</svg>