<svg xmlns="http://www.w3.org/2000/svg" width="1280" height="860" viewBox="0 0 1280 860">
  <rect width="1280" height="860" fill="#eef2f6"/>
  <rect x="0" y="0" width="1280" height="46" fill="#1f2937"/>
  <text x="24" y="29" font-family="Inter,Segoe UI,sans-serif" font-size="14" font-weight="700" fill="#ffffff" text-anchor="start">WIREFRAME — Login</text>
  <text x="1256" y="29" font-family="Inter,Segoe UI,sans-serif" font-size="12" font-weight="500" fill="#9aa4b2" text-anchor="end">login.html</text>
  <rect x="24" y="66" width="616" height="770" rx="16" fill="#b8c2cd" stroke="#b8c2cd" stroke-width="1.5"/><rect x="60" y="110" width="30" height="30" rx="8" fill="#ffffff" stroke="#ffffff" stroke-width="1.5"/><text x="104" y="130" font-family="Inter,Segoe UI,sans-serif" font-size="14" font-weight="700" fill="#ffffff" text-anchor="start">WinniPresence</text><rect x="60" y="380" width="460" height="26" rx="13" fill="#ffffff"/><rect x="60" y="420" width="400" height="26" rx="13" fill="#ffffff"/><rect x="60" y="470" width="480" height="10" rx="5" fill="#e2e8f0"/><rect x="60" y="492" width="440" height="10" rx="5" fill="#e2e8f0"/><text x="700" y="230" font-family="Inter,Segoe UI,sans-serif" font-size="20" font-weight="700" fill="#5b6675" text-anchor="start">Selamat datang kembali</text><rect x="700" y="252" width="300" height="10" rx="5" fill="#e7ecf2"/><rect x="700" y="280" width="520" height="44" rx="10" fill="#e7ecf2" stroke="#e7ecf2" stroke-width="1.5"/><text x="830" y="307" font-family="Inter,Segoe UI,sans-serif" font-size="12" font-weight="600" fill="#5b6675" text-anchor="middle">Karyawan</text><text x="1090" y="307" font-family="Inter,Segoe UI,sans-serif" font-size="12" font-weight="600" fill="#7a8694" text-anchor="middle">HR Admin</text><text x="700" y="360" font-family="Inter,Segoe UI,sans-serif" font-size="11" font-weight="600" fill="#7a8694" text-anchor="start">NIP / Username</text><rect x="700" y="372" width="520" height="44" rx="10" fill="#ffffff" stroke="#cbd5e1" stroke-width="1.5"/><text x="700" y="446" font-family="Inter,Segoe UI,sans-serif" font-size="11" font-weight="600" fill="#7a8694" text-anchor="start">Password</text><rect x="700" y="458" width="520" height="44" rx="10" fill="#ffffff" stroke="#cbd5e1" stroke-width="1.5"/><rect x="700" y="524" width="110" height="9" rx="4.5" fill="#e7ecf2"/><rect x="1110" y="524" width="110" height="9" rx="4.5" fill="#e7ecf2"/><rect x="700" y="556" width="520" height="46" rx="23" fill="#b8c2cd" stroke="#b8c2cd" stroke-width="1.5"/><text x="960" y="583" font-family="Inter,Segoe UI,sans-serif" font-size="12" font-weight="600" fill="#ffffff" text-anchor="middle">Masuk</text><text x="960" y="636" font-family="Inter,Segoe UI,sans-serif" font-size="11" font-weight="500" fill="#7a8694" text-anchor="middle">Karyawan diminta verifikasi OTP setelah login</text>
</svg>