<svg xmlns="http://www.w3.org/2000/svg" width="1280" height="860" viewBox="0 0 1280 860">
  <rect width="1280" height="860" fill="#eef2f6"/>
  <rect x="0" y="0" width="1280" height="46" fill="#1f2937"/>
  <text x="24" y="29" font-family="Inter,Segoe UI,sans-serif" font-size="14" font-weight="700" fill="#ffffff" text-anchor="start">WIREFRAME — Verifikasi OTP</text>
  <text x="1256" y="29" font-family="Inter,Segoe UI,sans-serif" font-size="12" font-weight="500" fill="#9aa4b2" text-anchor="end">otp.html</text>
  <rect x="380" y="150" width="520" height="520" rx="22" fill="#ffffff" stroke="#cbd5e1" stroke-width="1.5"/><rect x="420" y="200" width="90" height="9" rx="4.5" fill="#e7ecf2"/><rect x="420" y="230" width="56" height="56" rx="14" fill="#e7ecf2" stroke="#e7ecf2" stroke-width="1.5"/><text x="420" y="330" font-family="Inter,Segoe UI,sans-serif" font-size="20" font-weight="700" fill="#5b6675" text-anchor="start">Verifikasi OTP</text><rect x="420" y="355" width="420" height="9" rx="4.5" fill="#e7ecf2"/><rect x="420" y="374" width="360" height="9" rx="4.5" fill="#e7ecf2"/><text x="420" y="374" font-family="Inter,Segoe UI,sans-serif" font-size="9" font-weight="500" fill="#7a8694" text-anchor="start"></text><rect x="420" y="410" width="56" height="64" rx="12" fill="#ffffff" stroke="#cbd5e1" stroke-width="1.5"/><rect x="495" y="410" width="56" height="64" rx="12" fill="#ffffff" stroke="#cbd5e1" stroke-width="1.5"/><rect x="570" y="410" width="56" height="64" rx="12" fill="#ffffff" stroke="#cbd5e1" stroke-width="1.5"/><rect x="645" y="410" width="56" height="64" rx="12" fill="#ffffff" stroke="#cbd5e1" stroke-width="1.5"/><rect x="720" y="410" width="56" height="64" rx="12" fill="#ffffff" stroke="#cbd5e1" stroke-width="1.5"/><rect x="795" y="410" width="56" height="64" rx="12" fill="#ffffff" stroke="#cbd5e1" stroke-width="1.5"/><rect x="420" y="500" width="440" height="46" rx="23" fill="#b8c2cd" stroke="#b8c2cd" stroke-width="1.5"/><text x="640" y="527" font-family="Inter,Segoe UI,sans-serif" font-size="12" font-weight="600" fill="#ffffff" text-anchor="middle">Verifikasi</text><text x="640" y="580" font-family="Inter,Segoe UI,sans-serif" font-size="12" font-weight="600" fill="#7a8694" text-anchor="middle">Kirim ulang kode (30s)</text><text x="640" y="620" font-family="Inter,Segoe UI,sans-serif" font-size="11" font-weight="500" fill="#7a8694" text-anchor="middle">Demo: 1 2 3 4 5 6</text>
</svg>