<svg xmlns="http://www.w3.org/2000/svg" width="1280" height="860" viewBox="0 0 1280 860">
  <rect width="1280" height="860" fill="#eef2f6"/>
  <rect x="0" y="0" width="1280" height="46" fill="#1f2937"/>
  <text x="24" y="29" font-family="Inter,Segoe UI,sans-serif" font-size="14" font-weight="700" fill="#ffffff" text-anchor="start">WIREFRAME — Dashboard Karyawan</text>
  <text x="1256" y="29" font-family="Inter,Segoe UI,sans-serif" font-size="12" font-weight="500" fill="#9aa4b2" text-anchor="end">dashboard.html</text>
  <rect x="24" y="66" width="248" height="770" rx="16" fill="#ffffff" stroke="#cbd5e1" stroke-width="1.5"/><rect x="42" y="84" width="34" height="34" rx="9" fill="#b8c2cd" stroke="#b8c2cd" stroke-width="1.5"/><text x="86" y="99" font-family="Inter,Segoe UI,sans-serif" font-size="14" font-weight="700" fill="#5b6675" text-anchor="start">WinniPresence</text><text x="86" y="115" font-family="Inter,Segoe UI,sans-serif" font-size="10" font-weight="500" fill="#7a8694" text-anchor="start">Karyawan</text><rect x="42" y="140" width="212" height="1" rx="0.5" fill="#e7ecf2"/><rect x="38" y="144" width="220" height="38" rx="10" fill="#e7ecf2"/><circle cx="58" cy="162" r="8" fill="#b8c2cd"/><text x="78" y="166" font-family="Inter,Segoe UI,sans-serif" font-size="12.5" font-weight="600" fill="#5b6675" text-anchor="start">Dashboard</text><circle cx="58" cy="208" r="8" fill="#cdd6e0"/><text x="78" y="212" font-family="Inter,Segoe UI,sans-serif" font-size="12.5" font-weight="500" fill="#7a8694" text-anchor="start">Absensi</text><circle cx="58" cy="254" r="8" fill="#cdd6e0"/><text x="78" y="258" font-family="Inter,Segoe UI,sans-serif" font-size="12.5" font-weight="500" fill="#7a8694" text-anchor="start">Riwayat Absensi</text><circle cx="58" cy="300" r="8" fill="#cdd6e0"/><text x="78" y="304" font-family="Inter,Segoe UI,sans-serif" font-size="12.5" font-weight="500" fill="#7a8694" text-anchor="start">Cuti &amp; Izin</text><circle cx="58" cy="346" r="8" fill="#cdd6e0"/><text x="78" y="350" font-family="Inter,Segoe UI,sans-serif" font-size="12.5" font-weight="500" fill="#7a8694" text-anchor="start">Profil</text><rect x="38" y="776" width="220" height="46" rx="12" fill="#e7ecf2" stroke="#e7ecf2" stroke-width="1.5"/><circle cx="62" cy="799" r="14" fill="#cdd6e0"/><rect x="84" y="792" width="90" height="9" rx="4.5" fill="#e7ecf2"/><rect x="84" y="806" width="60" height="7" rx="3.5" fill="#e7ecf2"/><rect x="292" y="66" width="964" height="56" rx="14" fill="#ffffff" stroke="#cbd5e1" stroke-width="1.5"/><text x="314" y="93" font-family="Inter,Segoe UI,sans-serif" font-size="16" font-weight="700" fill="#5b6675" text-anchor="start">Dashboard</text><rect x="314" y="104" width="220" height="8" rx="4" fill="#e7ecf2"/><rect x="976" y="79" width="150" height="30" rx="15" fill="#e7ecf2" stroke="#e7ecf2" stroke-width="1.5"/><text x="994" y="98" font-family="Inter,Segoe UI,sans-serif" font-size="11" font-weight="500" fill="#7a8694" text-anchor="start">Cari...</text><circle cx="1166" cy="94" r="15" fill="#e7ecf2"/><circle cx="1210" cy="94" r="16" fill="#cdd6e0"/><rect x="292" y="142" width="604" height="220" rx="18" fill="#b8c2cd" stroke="#b8c2cd" stroke-width="1.5"/><rect x="316" y="182" width="200" height="10" rx="5" fill="#e2e8f0"/><rect x="316" y="212" width="300" height="22" rx="11" fill="#ffffff"/><rect x="316" y="252" width="180" height="36" rx="18" fill="#ffffff"/><rect x="316" y="302" width="160" height="40" rx="20" fill="#b8c2cd" stroke="#b8c2cd" stroke-width="1.5"/><text x="396" y="326" font-family="Inter,Segoe UI,sans-serif" font-size="12" font-weight="600" fill="#ffffff" text-anchor="middle">Absen Sekarang</text><rect x="492" y="302" width="140" height="40" rx="20" fill="#ffffff" stroke="#ffffff" stroke-width="1.5"/><rect x="912" y="142" width="344" height="220" rx="18" fill="#ffffff" stroke="#cbd5e1" stroke-width="1.5"/><text x="932" y="172" font-family="Inter,Segoe UI,sans-serif" font-size="13" font-weight="700" fill="#5b6675" text-anchor="start">Status Hari Ini</text><circle cx="936" cy="212" r="12" fill="#e7ecf2"/><rect x="956" y="208" width="200" height="9" rx="4.5" fill="#e7ecf2"/><circle cx="936" cy="248" r="12" fill="#e7ecf2"/><rect x="956" y="244" width="200" height="9" rx="4.5" fill="#e7ecf2"/><circle cx="936" cy="284" r="12" fill="#e7ecf2"/><rect x="956" y="280" width="200" height="9" rx="4.5" fill="#e7ecf2"/><circle cx="936" cy="320" r="12" fill="#e7ecf2"/><rect x="956" y="316" width="200" height="9" rx="4.5" fill="#e7ecf2"/><rect x="292" y="382" width="229" height="96" rx="16" fill="#ffffff" stroke="#cbd5e1" stroke-width="1.5"/><rect x="310" y="400" width="38" height="38" rx="10" fill="#e7ecf2" stroke="#e7ecf2" stroke-width="1.5"/><rect x="310" y="454" width="60" height="16" rx="8" fill="#cdd6e0"/><text x="310" y="472" font-family="Inter,Segoe UI,sans-serif" font-size="10" font-weight="500" fill="#7a8694" text-anchor="start">Hadir</text><rect x="537" y="382" width="229" height="96" rx="16" fill="#ffffff" stroke="#cbd5e1" stroke-width="1.5"/><rect x="555" y="400" width="38" height="38" rx="10" fill="#e7ecf2" stroke="#e7ecf2" stroke-width="1.5"/><rect x="555" y="454" width="60" height="16" rx="8" fill="#cdd6e0"/><text x="555" y="472" font-family="Inter,Segoe UI,sans-serif" font-size="10" font-weight="500" fill="#7a8694" text-anchor="start">Terlambat</text><rect x="782" y="382" width="229" height="96" rx="16" fill="#ffffff" stroke="#cbd5e1" stroke-width="1.5"/><rect x="800" y="400" width="38" height="38" rx="10" fill="#e7ecf2" stroke="#e7ecf2" stroke-width="1.5"/><rect x="800" y="454" width="60" height="16" rx="8" fill="#cdd6e0"/><text x="800" y="472" font-family="Inter,Segoe UI,sans-serif" font-size="10" font-weight="500" fill="#7a8694" text-anchor="start">Izin/Sakit</text><rect x="1027" y="382" width="229" height="96" rx="16" fill="#ffffff" stroke="#cbd5e1" stroke-width="1.5"/><rect x="1045" y="400" width="38" height="38" rx="10" fill="#e7ecf2" stroke="#e7ecf2" stroke-width="1.5"/><rect x="1045" y="454" width="60" height="16" rx="8" fill="#cdd6e0"/><text x="1045" y="472" font-family="Inter,Segoe UI,sans-serif" font-size="10" font-weight="500" fill="#7a8694" text-anchor="start">Kehadiran</text><rect x="292" y="502" width="604" height="280" rx="16" fill="#ffffff" stroke="#cbd5e1" stroke-width="1.5"/><text x="312" y="532" font-family="Inter,Segoe UI,sans-serif" font-size="13.5" font-weight="700" fill="#5b6675" text-anchor="start">Riwayat Terbaru</text><rect x="776" y="524" width="90" height="14" rx="7" fill="#e7ecf2"/><rect x="292" y="552" width="604" height="1" rx="0.5" fill="#e7ecf2"/><text x="314" y="576" font-family="Inter,Segoe UI,sans-serif" font-size="10" font-weight="600" fill="#7a8694" text-anchor="start">Tanggal</text><text x="465" y="576" font-family="Inter,Segoe UI,sans-serif" font-size="10" font-weight="600" fill="#7a8694" text-anchor="start">Masuk</text><text x="616" y="576" font-family="Inter,Segoe UI,sans-serif" font-size="10" font-weight="600" fill="#7a8694" text-anchor="start">Keluar</text><text x="767" y="576" font-family="Inter,Segoe UI,sans-serif" font-size="10" font-weight="600" fill="#7a8694" text-anchor="start">Status</text><rect x="314" y="596" width="111" height="9" rx="4.5" fill="#e7ecf2"/><rect x="465" y="596" width="111" height="9" rx="4.5" fill="#e7ecf2"/><rect x="616" y="596" width="111" height="9" rx="4.5" fill="#e7ecf2"/><rect x="767" y="596" width="111" height="9" rx="4.5" fill="#e7ecf2"/><rect x="314" y="636" width="111" height="9" rx="4.5" fill="#e7ecf2"/><rect x="465" y="636" width="111" height="9" rx="4.5" fill="#e7ecf2"/><rect x="616" y="636" width="111" height="9" rx="4.5" fill="#e7ecf2"/><rect x="767" y="636" width="111" height="9" rx="4.5" fill="#e7ecf2"/><rect x="314" y="676" width="111" height="9" rx="4.5" fill="#e7ecf2"/><rect x="465" y="676" width="111" height="9" rx="4.5" fill="#e7ecf2"/><rect x="616" y="676" width="111" height="9" rx="4.5" fill="#e7ecf2"/><rect x="767" y="676" width="111" height="9" rx="4.5" fill="#e7ecf2"/><rect x="314" y="716" width="111" height="9" rx="4.5" fill="#e7ecf2"/><rect x="465" y="716" width="111" height="9" rx="4.5" fill="#e7ecf2"/><rect x="616" y="716" width="111" height="9" rx="4.5" fill="#e7ecf2"/><rect x="767" y="716" width="111" height="9" rx="4.5" fill="#e7ecf2"/><rect x="314" y="756" width="111" height="9" rx="4.5" fill="#e7ecf2"/><rect x="465" y="756" width="111" height="9" rx="4.5" fill="#e7ecf2"/><rect x="616" y="756" width="111" height="9" rx="4.5" fill="#e7ecf2"/><rect x="767" y="756" width="111" height="9" rx="4.5" fill="#e7ecf2"/><rect x="912" y="502" width="344" height="280" rx="16" fill="#ffffff" stroke="#cbd5e1" stroke-width="1.5"/><text x="932" y="532" font-family="Inter,Segoe UI,sans-serif" font-size="13" font-weight="700" fill="#5b6675" text-anchor="start">Ringkasan Cuti</text><circle cx="1084" cy="632" r="60" fill="#e7ecf2" stroke="#cdd6e0" stroke-width="2" stroke-dasharray="6 6"/><rect x="932" y="712" width="200" height="9" rx="4.5" fill="#e7ecf2"/><rect x="932" y="732" width="160" height="9" rx="4.5" fill="#e7ecf2"/>
</svg>