<svg xmlns="http://www.w3.org/2000/svg" width="1280" height="860" viewBox="0 0 1280 860">
  <rect width="1280" height="860" fill="#eef2f6"/>
  <rect x="0" y="0" width="1280" height="46" fill="#1f2937"/>
  <text x="24" y="29" font-family="Inter,Segoe UI,sans-serif" font-size="14" font-weight="700" fill="#ffffff" text-anchor="start">WIREFRAME — Absensi Face Recognition</text>
  <text x="1256" y="29" font-family="Inter,Segoe UI,sans-serif" font-size="12" font-weight="500" fill="#9aa4b2" text-anchor="end">absensi.html</text>
  <rect x="24" y="66" width="248" height="770" rx="16" fill="#ffffff" stroke="#cbd5e1" stroke-width="1.5"/><rect x="42" y="84" width="34" height="34" rx="9" fill="#b8c2cd" stroke="#b8c2cd" stroke-width="1.5"/><text x="86" y="99" font-family="Inter,Segoe UI,sans-serif" font-size="14" font-weight="700" fill="#5b6675" text-anchor="start">WinniPresence</text><text x="86" y="115" font-family="Inter,Segoe UI,sans-serif" font-size="10" font-weight="500" fill="#7a8694" text-anchor="start">Karyawan</text><rect x="42" y="140" width="212" height="1" rx="0.5" fill="#e7ecf2"/><circle cx="58" cy="162" r="8" fill="#cdd6e0"/><text x="78" y="166" font-family="Inter,Segoe UI,sans-serif" font-size="12.5" font-weight="500" fill="#7a8694" text-anchor="start">Dashboard</text><rect x="38" y="190" width="220" height="38" rx="10" fill="#e7ecf2"/><circle cx="58" cy="208" r="8" fill="#b8c2cd"/><text x="78" y="212" font-family="Inter,Segoe UI,sans-serif" font-size="12.5" font-weight="600" fill="#5b6675" text-anchor="start">Absensi</text><circle cx="58" cy="254" r="8" fill="#cdd6e0"/><text x="78" y="258" font-family="Inter,Segoe UI,sans-serif" font-size="12.5" font-weight="500" fill="#7a8694" text-anchor="start">Riwayat Absensi</text><circle cx="58" cy="300" r="8" fill="#cdd6e0"/><text x="78" y="304" font-family="Inter,Segoe UI,sans-serif" font-size="12.5" font-weight="500" fill="#7a8694" text-anchor="start">Cuti &amp; Izin</text><circle cx="58" cy="346" r="8" fill="#cdd6e0"/><text x="78" y="350" font-family="Inter,Segoe UI,sans-serif" font-size="12.5" font-weight="500" fill="#7a8694" text-anchor="start">Profil</text><rect x="38" y="776" width="220" height="46" rx="12" fill="#e7ecf2" stroke="#e7ecf2" stroke-width="1.5"/><circle cx="62" cy="799" r="14" fill="#cdd6e0"/><rect x="84" y="792" width="90" height="9" rx="4.5" fill="#e7ecf2"/><rect x="84" y="806" width="60" height="7" rx="3.5" fill="#e7ecf2"/><rect x="292" y="66" width="964" height="56" rx="14" fill="#ffffff" stroke="#cbd5e1" stroke-width="1.5"/><text x="314" y="93" font-family="Inter,Segoe UI,sans-serif" font-size="16" font-weight="700" fill="#5b6675" text-anchor="start">Absensi</text><rect x="314" y="104" width="220" height="8" rx="4" fill="#e7ecf2"/><rect x="976" y="79" width="150" height="30" rx="15" fill="#e7ecf2" stroke="#e7ecf2" stroke-width="1.5"/><text x="994" y="98" font-family="Inter,Segoe UI,sans-serif" font-size="11" font-weight="500" fill="#7a8694" text-anchor="start">Cari...</text><circle cx="1166" cy="94" r="15" fill="#e7ecf2"/><circle cx="1210" cy="94" r="16" fill="#cdd6e0"/><rect x="292" y="142" width="604" height="560" rx="16" fill="#ffffff" stroke="#cbd5e1" stroke-width="1.5"/><text x="312" y="172" font-family="Inter,Segoe UI,sans-serif" font-size="13.5" font-weight="700" fill="#5b6675" text-anchor="start">Absensi Face Recognition</text><rect x="312" y="192" width="220" height="40" rx="10" fill="#e7ecf2" stroke="#e7ecf2" stroke-width="1.5"/><text x="372" y="217" font-family="Inter,Segoe UI,sans-serif" font-size="12" font-weight="600" fill="#5b6675" text-anchor="middle">Masuk</text><text x="472" y="217" font-family="Inter,Segoe UI,sans-serif" font-size="12" font-weight="600" fill="#7a8694" text-anchor="middle">Keluar</text><circle cx="594" cy="422" r="130" fill="#e7ecf2" stroke="#cdd6e0" stroke-width="2" stroke-dasharray="6 6"/><text x="594" y="428" font-family="Inter,Segoe UI,sans-serif" font-size="13" font-weight="600" fill="#7a8694" text-anchor="middle">Area Pindai Wajah</text><rect x="484" y="612" width="220" height="46" rx="23" fill="#b8c2cd" stroke="#b8c2cd" stroke-width="1.5"/><text x="594" y="639" font-family="Inter,Segoe UI,sans-serif" font-size="12" font-weight="600" fill="#ffffff" text-anchor="middle">Mulai Pindai Wajah</text><rect x="920" y="142" width="336" height="260" rx="16" fill="#ffffff" stroke="#cbd5e1" stroke-width="1.5"/><text x="940" y="172" font-family="Inter,Segoe UI,sans-serif" font-size="13.5" font-weight="700" fill="#5b6675" text-anchor="start">Validasi Kehadiran</text><rect x="940" y="198" width="38" height="38" rx="10" fill="#e7ecf2" stroke="#e7ecf2" stroke-width="1.5"/><rect x="990" y="208" width="180" height="10" rx="5" fill="#e7ecf2"/><rect x="990" y="224" width="120" height="8" rx="4" fill="#e7ecf2"/><rect x="940" y="254" width="38" height="38" rx="10" fill="#e7ecf2" stroke="#e7ecf2" stroke-width="1.5"/><rect x="990" y="264" width="180" height="10" rx="5" fill="#e7ecf2"/><rect x="990" y="280" width="120" height="8" rx="4" fill="#e7ecf2"/><rect x="940" y="310" width="38" height="38" rx="10" fill="#e7ecf2" stroke="#e7ecf2" stroke-width="1.5"/><rect x="990" y="320" width="180" height="10" rx="5" fill="#e7ecf2"/><rect x="990" y="336" width="120" height="8" rx="4" fill="#e7ecf2"/><rect x="920" y="426" width="336" height="276" rx="16" fill="#ffffff" stroke="#cbd5e1" stroke-width="1.5"/><text x="940" y="456" font-family="Inter,Segoe UI,sans-serif" font-size="13.5" font-weight="700" fill="#5b6675" text-anchor="start">Lokasi Anda</text><rect x="940" y="462" width="296" height="150" rx="12" fill="#e7ecf2" stroke="#e7ecf2" stroke-width="1.5"/><circle cx="1088" cy="537" r="16" fill="#cdd6e0"/><rect x="940" y="638" width="296" height="10" rx="5" fill="#e7ecf2"/>
</svg>