<svg xmlns="http://www.w3.org/2000/svg" width="1280" height="860" viewBox="0 0 1280 860">
  <rect width="1280" height="860" fill="#eef2f6"/>
  <rect x="0" y="0" width="1280" height="46" fill="#1f2937"/>
  <text x="24" y="29" font-family="Inter,Segoe UI,sans-serif" font-size="14" font-weight="700" fill="#ffffff" text-anchor="start">WIREFRAME — Riwayat Absensi</text>
  <text x="1256" y="29" font-family="Inter,Segoe UI,sans-serif" font-size="12" font-weight="500" fill="#9aa4b2" text-anchor="end">riwayat.html</text>
  <rect x="24" y="66" width="248" height="770" rx="16" fill="#ffffff" stroke="#cbd5e1" stroke-width="1.5"/><rect x="42" y="84" width="34" height="34" rx="9" fill="#b8c2cd" stroke="#b8c2cd" stroke-width="1.5"/><text x="86" y="99" font-family="Inter,Segoe UI,sans-serif" font-size="14" font-weight="700" fill="#5b6675" text-anchor="start">WinniPresence</text><text x="86" y="115" font-family="Inter,Segoe UI,sans-serif" font-size="10" font-weight="500" fill="#7a8694" text-anchor="start">Karyawan</text><rect x="42" y="140" width="212" height="1" rx="0.5" fill="#e7ecf2"/><circle cx="58" cy="162" r="8" fill="#cdd6e0"/><text x="78" y="166" font-family="Inter,Segoe UI,sans-serif" font-size="12.5" font-weight="500" fill="#7a8694" text-anchor="start">Dashboard</text><circle cx="58" cy="208" r="8" fill="#cdd6e0"/><text x="78" y="212" font-family="Inter,Segoe UI,sans-serif" font-size="12.5" font-weight="500" fill="#7a8694" text-anchor="start">Absensi</text><rect x="38" y="236" width="220" height="38" rx="10" fill="#e7ecf2"/><circle cx="58" cy="254" r="8" fill="#b8c2cd"/><text x="78" y="258" font-family="Inter,Segoe UI,sans-serif" font-size="12.5" font-weight="600" fill="#5b6675" text-anchor="start">Riwayat Absensi</text><circle cx="58" cy="300" r="8" fill="#cdd6e0"/><text x="78" y="304" font-family="Inter,Segoe UI,sans-serif" font-size="12.5" font-weight="500" fill="#7a8694" text-anchor="start">Cuti &amp; Izin</text><circle cx="58" cy="346" r="8" fill="#cdd6e0"/><text x="78" y="350" font-family="Inter,Segoe UI,sans-serif" font-size="12.5" font-weight="500" fill="#7a8694" text-anchor="start">Profil</text><rect x="38" y="776" width="220" height="46" rx="12" fill="#e7ecf2" stroke="#e7ecf2" stroke-width="1.5"/><circle cx="62" cy="799" r="14" fill="#cdd6e0"/><rect x="84" y="792" width="90" height="9" rx="4.5" fill="#e7ecf2"/><rect x="84" y="806" width="60" height="7" rx="3.5" fill="#e7ecf2"/><rect x="292" y="66" width="964" height="56" rx="14" fill="#ffffff" stroke="#cbd5e1" stroke-width="1.5"/><text x="314" y="93" font-family="Inter,Segoe UI,sans-serif" font-size="16" font-weight="700" fill="#5b6675" text-anchor="start">Riwayat Absensi</text><rect x="314" y="104" width="220" height="8" rx="4" fill="#e7ecf2"/><rect x="976" y="79" width="150" height="30" rx="15" fill="#e7ecf2" stroke="#e7ecf2" stroke-width="1.5"/><text x="994" y="98" font-family="Inter,Segoe UI,sans-serif" font-size="11" font-weight="500" fill="#7a8694" text-anchor="start">Cari...</text><circle cx="1166" cy="94" r="15" fill="#e7ecf2"/><circle cx="1210" cy="94" r="16" fill="#cdd6e0"/><rect x="292" y="142" width="229" height="96" rx="16" fill="#ffffff" stroke="#cbd5e1" stroke-width="1.5"/><rect x="310" y="160" width="38" height="38" rx="10" fill="#e7ecf2" stroke="#e7ecf2" stroke-width="1.5"/><rect x="310" y="214" width="60" height="16" rx="8" fill="#cdd6e0"/><text x="310" y="232" font-family="Inter,Segoe UI,sans-serif" font-size="10" font-weight="500" fill="#7a8694" text-anchor="start">Hadir</text><rect x="537" y="142" width="229" height="96" rx="16" fill="#ffffff" stroke="#cbd5e1" stroke-width="1.5"/><rect x="555" y="160" width="38" height="38" rx="10" fill="#e7ecf2" stroke="#e7ecf2" stroke-width="1.5"/><rect x="555" y="214" width="60" height="16" rx="8" fill="#cdd6e0"/><text x="555" y="232" font-family="Inter,Segoe UI,sans-serif" font-size="10" font-weight="500" fill="#7a8694" text-anchor="start">Terlambat</text><rect x="782" y="142" width="229" height="96" rx="16" fill="#ffffff" stroke="#cbd5e1" stroke-width="1.5"/><rect x="800" y="160" width="38" height="38" rx="10" fill="#e7ecf2" stroke="#e7ecf2" stroke-width="1.5"/><rect x="800" y="214" width="60" height="16" rx="8" fill="#cdd6e0"/><text x="800" y="232" font-family="Inter,Segoe UI,sans-serif" font-size="10" font-weight="500" fill="#7a8694" text-anchor="start">Izin</text><rect x="1027" y="142" width="229" height="96" rx="16" fill="#ffffff" stroke="#cbd5e1" stroke-width="1.5"/><rect x="1045" y="160" width="38" height="38" rx="10" fill="#e7ecf2" stroke="#e7ecf2" stroke-width="1.5"/><rect x="1045" y="214" width="60" height="16" rx="8" fill="#cdd6e0"/><text x="1045" y="232" font-family="Inter,Segoe UI,sans-serif" font-size="10" font-weight="500" fill="#7a8694" text-anchor="start">Sakit</text><rect x="292" y="262" width="964" height="510" rx="16" fill="#ffffff" stroke="#cbd5e1" stroke-width="1.5"/><text x="312" y="292" font-family="Inter,Segoe UI,sans-serif" font-size="13.5" font-weight="700" fill="#5b6675" text-anchor="start">Riwayat Kehadiran</text><rect x="1136" y="284" width="90" height="14" rx="7" fill="#e7ecf2"/><rect x="292" y="312" width="964" height="1" rx="0.5" fill="#e7ecf2"/><text x="314" y="336" font-family="Inter,Segoe UI,sans-serif" font-size="10" font-weight="600" fill="#7a8694" text-anchor="start">Tanggal</text><text x="474.66666666666663" y="336" font-family="Inter,Segoe UI,sans-serif" font-size="10" font-weight="600" fill="#7a8694" text-anchor="start">Hari</text><text x="635.3333333333333" y="336" font-family="Inter,Segoe UI,sans-serif" font-size="10" font-weight="600" fill="#7a8694" text-anchor="start">Masuk</text><text x="796" y="336" font-family="Inter,Segoe UI,sans-serif" font-size="10" font-weight="600" fill="#7a8694" text-anchor="start">Keluar</text><text x="956.6666666666666" y="336" font-family="Inter,Segoe UI,sans-serif" font-size="10" font-weight="600" fill="#7a8694" text-anchor="start">Durasi</text><text x="1117.3333333333333" y="336" font-family="Inter,Segoe UI,sans-serif" font-size="10" font-weight="600" fill="#7a8694" text-anchor="start">Status</text><rect x="314" y="356" width="120.66666666666666" height="9" rx="4.5" fill="#e7ecf2"/><rect x="474.66666666666663" y="356" width="120.66666666666666" height="9" rx="4.5" fill="#e7ecf2"/><rect x="635.3333333333333" y="356" width="120.66666666666666" height="9" rx="4.5" fill="#e7ecf2"/><rect x="796" y="356" width="120.66666666666666" height="9" rx="4.5" fill="#e7ecf2"/><rect x="956.6666666666666" y="356" width="120.66666666666666" height="9" rx="4.5" fill="#e7ecf2"/><rect x="1117.3333333333333" y="356" width="120.66666666666666" height="9" rx="4.5" fill="#e7ecf2"/><rect x="314" y="396" width="120.66666666666666" height="9" rx="4.5" fill="#e7ecf2"/><rect x="474.66666666666663" y="396" width="120.66666666666666" height="9" rx="4.5" fill="#e7ecf2"/><rect x="635.3333333333333" y="396" width="120.66666666666666" height="9" rx="4.5" fill="#e7ecf2"/><rect x="796" y="396" width="120.66666666666666" height="9" rx="4.5" fill="#e7ecf2"/><rect x="956.6666666666666" y="396" width="120.66666666666666" height="9" rx="4.5" fill="#e7ecf2"/><rect x="1117.3333333333333" y="396" width="120.66666666666666" height="9" rx="4.5" fill="#e7ecf2"/><rect x="314" y="436" width="120.66666666666666" height="9" rx="4.5" fill="#e7ecf2"/><rect x="474.66666666666663" y="436" width="120.66666666666666" height="9" rx="4.5" fill="#e7ecf2"/><rect x="635.3333333333333" y="436" width="120.66666666666666" height="9" rx="4.5" fill="#e7ecf2"/><rect x="796" y="436" width="120.66666666666666" height="9" rx="4.5" fill="#e7ecf2"/><rect x="956.6666666666666" y="436" width="120.66666666666666" height="9" rx="4.5" fill="#e7ecf2"/><rect x="1117.3333333333333" y="436" width="120.66666666666666" height="9" rx="4.5" fill="#e7ecf2"/><rect x="314" y="476" width="120.66666666666666" height="9" rx="4.5" fill="#e7ecf2"/><rect x="474.66666666666663" y="476" width="120.66666666666666" height="9" rx="4.5" fill="#e7ecf2"/><rect x="635.3333333333333" y="476" width="120.66666666666666" height="9" rx="4.5" fill="#e7ecf2"/><rect x="796" y="476" width="120.66666666666666" height="9" rx="4.5" fill="#e7ecf2"/><rect x="956.6666666666666" y="476" width="120.66666666666666" height="9" rx="4.5" fill="#e7ecf2"/><rect x="1117.3333333333333" y="476" width="120.66666666666666" height="9" rx="4.5" fill="#e7ecf2"/><rect x="314" y="516" width="120.66666666666666" height="9" rx="4.5" fill="#e7ecf2"/><rect x="474.66666666666663" y="516" width="120.66666666666666" height="9" rx="4.5" fill="#e7ecf2"/><rect x="635.3333333333333" y="516" width="120.66666666666666" height="9" rx="4.5" fill="#e7ecf2"/><rect x="796" y="516" width="120.66666666666666" height="9" rx="4.5" fill="#e7ecf2"/><rect x="956.6666666666666" y="516" width="120.66666666666666" height="9" rx="4.5" fill="#e7ecf2"/><rect x="1117.3333333333333" y="516" width="120.66666666666666" height="9" rx="4.5" fill="#e7ecf2"/><rect x="314" y="556" width="120.66666666666666" height="9" rx="4.5" fill="#e7ecf2"/><rect x="474.66666666666663" y="556" width="120.66666666666666" height="9" rx="4.5" fill="#e7ecf2"/><rect x="635.3333333333333" y="556" width="120.66666666666666" height="9" rx="4.5" fill="#e7ecf2"/><rect x="796" y="556" width="120.66666666666666" height="9" rx="4.5" fill="#e7ecf2"/><rect x="956.6666666666666" y="556" width="120.66666666666666" height="9" rx="4.5" fill="#e7ecf2"/><rect x="1117.3333333333333" y="556" width="120.66666666666666" height="9" rx="4.5" fill="#e7ecf2"/><rect x="314" y="596" width="120.66666666666666" height="9" rx="4.5" fill="#e7ecf2"/><rect x="474.66666666666663" y="596" width="120.66666666666666" height="9" rx="4.5" fill="#e7ecf2"/><rect x="635.3333333333333" y="596" width="120.66666666666666" height="9" rx="4.5" fill="#e7ecf2"/><rect x="796" y="596" width="120.66666666666666" height="9" rx="4.5" fill="#e7ecf2"/><rect x="956.6666666666666" y="596" width="120.66666666666666" height="9" rx="4.5" fill="#e7ecf2"/><rect x="1117.3333333333333" y="596" width="120.66666666666666" height="9" rx="4.5" fill="#e7ecf2"/><rect x="314" y="636" width="120.66666666666666" height="9" rx="4.5" fill="#e7ecf2"/><rect x="474.66666666666663" y="636" width="120.66666666666666" height="9" rx="4.5" fill="#e7ecf2"/><rect x="635.3333333333333" y="636" width="120.66666666666666" height="9" rx="4.5" fill="#e7ecf2"/><rect x="796" y="636" width="120.66666666666666" height="9" rx="4.5" fill="#e7ecf2"/><rect x="956.6666666666666" y="636" width="120.66666666666666" height="9" rx="4.5" fill="#e7ecf2"/><rect x="1117.3333333333333" y="636" width="120.66666666666666" height="9" rx="4.5" fill="#e7ecf2"/>
</svg>