<svg xmlns="http://www.w3.org/2000/svg" width="1280" height="860" viewBox="0 0 1280 860">
  <rect width="1280" height="860" fill="#eef2f6"/>
  <rect x="0" y="0" width="1280" height="46" fill="#1f2937"/>
  <text x="24" y="29" font-family="Inter,Segoe UI,sans-serif" font-size="14" font-weight="700" fill="#ffffff" text-anchor="start">WIREFRAME — Profil Karyawan</text>
  <text x="1256" y="29" font-family="Inter,Segoe UI,sans-serif" font-size="12" font-weight="500" fill="#9aa4b2" text-anchor="end">profil.html</text>
  <rect x="24" y="66" width="248" height="770" rx="16" fill="#ffffff" stroke="#cbd5e1" stroke-width="1.5"/><rect x="42" y="84" width="34" height="34" rx="9" fill="#b8c2cd" stroke="#b8c2cd" stroke-width="1.5"/><text x="86" y="99" font-family="Inter,Segoe UI,sans-serif" font-size="14" font-weight="700" fill="#5b6675" text-anchor="start">WinniPresence</text><text x="86" y="115" font-family="Inter,Segoe UI,sans-serif" font-size="10" font-weight="500" fill="#7a8694" text-anchor="start">Karyawan</text><rect x="42" y="140" width="212" height="1" rx="0.5" fill="#e7ecf2"/><circle cx="58" cy="162" r="8" fill="#cdd6e0"/><text x="78" y="166" font-family="Inter,Segoe UI,sans-serif" font-size="12.5" font-weight="500" fill="#7a8694" text-anchor="start">Dashboard</text><circle cx="58" cy="208" r="8" fill="#cdd6e0"/><text x="78" y="212" font-family="Inter,Segoe UI,sans-serif" font-size="12.5" font-weight="500" fill="#7a8694" text-anchor="start">Absensi</text><circle cx="58" cy="254" r="8" fill="#cdd6e0"/><text x="78" y="258" font-family="Inter,Segoe UI,sans-serif" font-size="12.5" font-weight="500" fill="#7a8694" text-anchor="start">Riwayat Absensi</text><circle cx="58" cy="300" r="8" fill="#cdd6e0"/><text x="78" y="304" font-family="Inter,Segoe UI,sans-serif" font-size="12.5" font-weight="500" fill="#7a8694" text-anchor="start">Cuti &amp; Izin</text><rect x="38" y="328" width="220" height="38" rx="10" fill="#e7ecf2"/><circle cx="58" cy="346" r="8" fill="#b8c2cd"/><text x="78" y="350" font-family="Inter,Segoe UI,sans-serif" font-size="12.5" font-weight="600" fill="#5b6675" text-anchor="start">Profil</text><rect x="38" y="776" width="220" height="46" rx="12" fill="#e7ecf2" stroke="#e7ecf2" stroke-width="1.5"/><circle cx="62" cy="799" r="14" fill="#cdd6e0"/><rect x="84" y="792" width="90" height="9" rx="4.5" fill="#e7ecf2"/><rect x="84" y="806" width="60" height="7" rx="3.5" fill="#e7ecf2"/><rect x="292" y="66" width="964" height="56" rx="14" fill="#ffffff" stroke="#cbd5e1" stroke-width="1.5"/><text x="314" y="93" font-family="Inter,Segoe UI,sans-serif" font-size="16" font-weight="700" fill="#5b6675" text-anchor="start">Profil</text><rect x="314" y="104" width="220" height="8" rx="4" fill="#e7ecf2"/><rect x="976" y="79" width="150" height="30" rx="15" fill="#e7ecf2" stroke="#e7ecf2" stroke-width="1.5"/><text x="994" y="98" font-family="Inter,Segoe UI,sans-serif" font-size="11" font-weight="500" fill="#7a8694" text-anchor="start">Cari...</text><circle cx="1166" cy="94" r="15" fill="#e7ecf2"/><circle cx="1210" cy="94" r="16" fill="#cdd6e0"/><rect x="292" y="142" width="320" height="420" rx="16" fill="#ffffff" stroke="#cbd5e1" stroke-width="1.5"/><rect x="402" y="172" width="100" height="100" rx="24" fill="#e7ecf2" stroke="#e7ecf2" stroke-width="1.5"/><rect x="382" y="298" width="140" height="14" rx="7" fill="#cdd6e0"/><rect x="402" y="322" width="100" height="9" rx="4.5" fill="#e7ecf2"/><rect x="322" y="372" width="120" height="70" rx="12" fill="#e7ecf2" stroke="#e7ecf2" stroke-width="1.5"/><rect x="462" y="372" width="120" height="70" rx="12" fill="#e7ecf2" stroke="#e7ecf2" stroke-width="1.5"/><rect x="636" y="142" width="620" height="420" rx="16" fill="#ffffff" stroke="#cbd5e1" stroke-width="1.5"/><rect x="636" y="192" width="620" height="1" rx="0.5" fill="#e7ecf2"/><text x="660" y="178" font-family="Inter,Segoe UI,sans-serif" font-size="12.5" font-weight="600" fill="#5b6675" text-anchor="start">Informasi Pribadi</text><text x="836" y="178" font-family="Inter,Segoe UI,sans-serif" font-size="12.5" font-weight="600" fill="#7a8694" text-anchor="start">Keamanan</text><rect x="660" y="222" width="100" height="8" rx="4" fill="#e7ecf2"/><rect x="660" y="234" width="250" height="40" rx="10" fill="#ffffff" stroke="#cbd5e1" stroke-width="1.5"/><rect x="958" y="222" width="100" height="8" rx="4" fill="#e7ecf2"/><rect x="958" y="234" width="250" height="40" rx="10" fill="#ffffff" stroke="#cbd5e1" stroke-width="1.5"/><rect x="660" y="302" width="100" height="8" rx="4" fill="#e7ecf2"/><rect x="660" y="314" width="250" height="40" rx="10" fill="#ffffff" stroke="#cbd5e1" stroke-width="1.5"/><rect x="958" y="302" width="100" height="8" rx="4" fill="#e7ecf2"/><rect x="958" y="314" width="250" height="40" rx="10" fill="#ffffff" stroke="#cbd5e1" stroke-width="1.5"/><rect x="660" y="382" width="100" height="8" rx="4" fill="#e7ecf2"/><rect x="660" y="394" width="250" height="40" rx="10" fill="#ffffff" stroke="#cbd5e1" stroke-width="1.5"/><rect x="958" y="382" width="100" height="8" rx="4" fill="#e7ecf2"/><rect x="958" y="394" width="250" height="40" rx="10" fill="#ffffff" stroke="#cbd5e1" stroke-width="1.5"/><rect x="660" y="462" width="100" height="8" rx="4" fill="#e7ecf2"/><rect x="660" y="474" width="250" height="40" rx="10" fill="#ffffff" stroke="#cbd5e1" stroke-width="1.5"/><rect x="958" y="462" width="100" height="8" rx="4" fill="#e7ecf2"/><rect x="958" y="474" width="250" height="40" rx="10" fill="#ffffff" stroke="#cbd5e1" stroke-width="1.5"/><rect x="1076" y="506" width="150" height="38" rx="19" fill="#b8c2cd" stroke="#b8c2cd" stroke-width="1.5"/><text x="1151" y="529" font-family="Inter,Segoe UI,sans-serif" font-size="12" font-weight="600" fill="#ffffff" text-anchor="middle">Simpan Perubahan</text>
</svg>