<svg xmlns="http://www.w3.org/2000/svg" width="1280" height="860" viewBox="0 0 1280 860">
  <rect width="1280" height="860" fill="#eef2f6"/>
  <rect x="0" y="0" width="1280" height="46" fill="#1f2937"/>
  <text x="24" y="29" font-family="Inter,Segoe UI,sans-serif" font-size="14" font-weight="700" fill="#ffffff" text-anchor="start">WIREFRAME — Titik Lokasi Absensi</text>
  <text x="1256" y="29" font-family="Inter,Segoe UI,sans-serif" font-size="12" font-weight="500" fill="#9aa4b2" text-anchor="end">admin-lokasi.html</text>
  <rect x="24" y="66" width="248" height="770" rx="16" fill="#ffffff" stroke="#cbd5e1" stroke-width="1.5"/><rect x="42" y="84" width="34" height="34" rx="9" fill="#b8c2cd" stroke="#b8c2cd" stroke-width="1.5"/><text x="86" y="99" font-family="Inter,Segoe UI,sans-serif" font-size="14" font-weight="700" fill="#5b6675" text-anchor="start">WinniPresence</text><text x="86" y="115" font-family="Inter,Segoe UI,sans-serif" font-size="10" font-weight="500" fill="#7a8694" text-anchor="start">HR Admin</text><rect x="42" y="140" width="212" height="1" rx="0.5" fill="#e7ecf2"/><circle cx="58" cy="162" r="8" fill="#cdd6e0"/><text x="78" y="166" font-family="Inter,Segoe UI,sans-serif" font-size="12.5" font-weight="500" fill="#7a8694" text-anchor="start">Dashboard</text><circle cx="58" cy="208" r="8" fill="#cdd6e0"/><text x="78" y="212" font-family="Inter,Segoe UI,sans-serif" font-size="12.5" font-weight="500" fill="#7a8694" text-anchor="start">Data Karyawan</text><rect x="38" y="236" width="220" height="38" rx="10" fill="#e7ecf2"/><circle cx="58" cy="254" r="8" fill="#b8c2cd"/><text x="78" y="258" font-family="Inter,Segoe UI,sans-serif" font-size="12.5" font-weight="600" fill="#5b6675" text-anchor="start">Titik Lokasi</text><circle cx="58" cy="300" r="8" fill="#cdd6e0"/><text x="78" y="304" font-family="Inter,Segoe UI,sans-serif" font-size="12.5" font-weight="500" fill="#7a8694" text-anchor="start">Rekap &amp; Laporan</text><rect x="38" y="776" width="220" height="46" rx="12" fill="#e7ecf2" stroke="#e7ecf2" stroke-width="1.5"/><circle cx="62" cy="799" r="14" fill="#cdd6e0"/><rect x="84" y="792" width="90" height="9" rx="4.5" fill="#e7ecf2"/><rect x="84" y="806" width="60" height="7" rx="3.5" fill="#e7ecf2"/><rect x="292" y="66" width="964" height="56" rx="14" fill="#ffffff" stroke="#cbd5e1" stroke-width="1.5"/><text x="314" y="93" font-family="Inter,Segoe UI,sans-serif" font-size="16" font-weight="700" fill="#5b6675" text-anchor="start">Titik Lokasi Absensi</text><rect x="314" y="104" width="220" height="8" rx="4" fill="#e7ecf2"/><rect x="976" y="79" width="150" height="30" rx="15" fill="#e7ecf2" stroke="#e7ecf2" stroke-width="1.5"/><text x="994" y="98" font-family="Inter,Segoe UI,sans-serif" font-size="11" font-weight="500" fill="#7a8694" text-anchor="start">Cari...</text><circle cx="1166" cy="94" r="15" fill="#e7ecf2"/><circle cx="1210" cy="94" r="16" fill="#cdd6e0"/><rect x="292" y="142" width="604" height="560" rx="16" fill="#ffffff" stroke="#cbd5e1" stroke-width="1.5"/><text x="312" y="172" font-family="Inter,Segoe UI,sans-serif" font-size="13.5" font-weight="700" fill="#5b6675" text-anchor="start">Peta Titik Absensi</text><rect x="312" y="192" width="564" height="490" rx="12" fill="#e7ecf2" stroke="#e7ecf2" stroke-width="1.5"/><line x1="382.5" y1="192" x2="382.5" y2="682" stroke="#cdd6e0" stroke-width="1" opacity="0.4"/><line x1="453" y1="192" x2="453" y2="682" stroke="#cdd6e0" stroke-width="1" opacity="0.4"/><line x1="523.5" y1="192" x2="523.5" y2="682" stroke="#cdd6e0" stroke-width="1" opacity="0.4"/><line x1="594" y1="192" x2="594" y2="682" stroke="#cdd6e0" stroke-width="1" opacity="0.4"/><line x1="664.5" y1="192" x2="664.5" y2="682" stroke="#cdd6e0" stroke-width="1" opacity="0.4"/><line x1="735" y1="192" x2="735" y2="682" stroke="#cdd6e0" stroke-width="1" opacity="0.4"/><line x1="805.5" y1="192" x2="805.5" y2="682" stroke="#cdd6e0" stroke-width="1" opacity="0.4"/><circle cx="594" cy="412" r="50" fill="none" stroke="#cdd6e0" stroke-width="1.5"/><circle cx="594" cy="412" r="6" fill="#b8c2cd"/><circle cx="481.2" cy="542" r="40" fill="none" stroke="#cdd6e0" stroke-width="1.5"/><rect x="920" y="142" width="336" height="290" rx="16" fill="#ffffff" stroke="#cbd5e1" stroke-width="1.5"/><text x="940" y="172" font-family="Inter,Segoe UI,sans-serif" font-size="13.5" font-weight="700" fill="#5b6675" text-anchor="start">Tambah Titik Lokasi</text><rect x="940" y="198" width="120" height="8" rx="4" fill="#e7ecf2"/><rect x="940" y="210" width="296" height="40" rx="10" fill="#ffffff" stroke="#cbd5e1" stroke-width="1.5"/><rect x="940" y="262" width="143" height="40" rx="10" fill="#ffffff" stroke="#cbd5e1" stroke-width="1.5"/><rect x="1093" y="262" width="143" height="40" rx="10" fill="#ffffff" stroke="#cbd5e1" stroke-width="1.5"/><rect x="940" y="316" width="296" height="10" rx="5" fill="#e7ecf2" stroke="#cbd5e1" stroke-width="1.5"/><rect x="940" y="362" width="296" height="42" rx="21" fill="#b8c2cd" stroke="#b8c2cd" stroke-width="1.5"/><text x="1088" y="387" font-family="Inter,Segoe UI,sans-serif" font-size="12" font-weight="600" fill="#ffffff" text-anchor="middle">Simpan Titik</text><rect x="920" y="456" width="336" height="246" rx="16" fill="#ffffff" stroke="#cbd5e1" stroke-width="1.5"/><text x="940" y="486" font-family="Inter,Segoe UI,sans-serif" font-size="13.5" font-weight="700" fill="#5b6675" text-anchor="start">Daftar Lokasi</text><circle cx="958" cy="518" r="14" fill="#e7ecf2"/><rect x="984" y="508" width="160" height="10" rx="5" fill="#e7ecf2"/><rect x="984" y="526" width="90" height="8" rx="4" fill="#e7ecf2"/><circle cx="958" cy="574" r="14" fill="#e7ecf2"/><rect x="984" y="564" width="160" height="10" rx="5" fill="#e7ecf2"/><rect x="984" y="582" width="90" height="8" rx="4" fill="#e7ecf2"/><circle cx="958" cy="630" r="14" fill="#e7ecf2"/><rect x="984" y="620" width="160" height="10" rx="5" fill="#e7ecf2"/><rect x="984" y="638" width="90" height="8" rx="4" fill="#e7ecf2"/>
</svg>