<svg xmlns="http://www.w3.org/2000/svg" width="1280" height="860" viewBox="0 0 1280 860">
  <rect width="1280" height="860" fill="#eef2f6"/>
  <rect x="0" y="0" width="1280" height="46" fill="#1f2937"/>
  <text x="24" y="29" font-family="Inter,Segoe UI,sans-serif" font-size="14" font-weight="700" fill="#ffffff" text-anchor="start">WIREFRAME — Rekap &amp; Laporan</text>
  <text x="1256" y="29" font-family="Inter,Segoe UI,sans-serif" font-size="12" font-weight="500" fill="#9aa4b2" text-anchor="end">admin-rekap.html</text>
  <rect x="24" y="66" width="248" height="770" rx="16" fill="#ffffff" stroke="#cbd5e1" stroke-width="1.5"/><rect x="42" y="84" width="34" height="34" rx="9" fill="#b8c2cd" stroke="#b8c2cd" stroke-width="1.5"/><text x="86" y="99" font-family="Inter,Segoe UI,sans-serif" font-size="14" font-weight="700" fill="#5b6675" text-anchor="start">WinniPresence</text><text x="86" y="115" font-family="Inter,Segoe UI,sans-serif" font-size="10" font-weight="500" fill="#7a8694" text-anchor="start">HR Admin</text><rect x="42" y="140" width="212" height="1" rx="0.5" fill="#e7ecf2"/><circle cx="58" cy="162" r="8" fill="#cdd6e0"/><text x="78" y="166" font-family="Inter,Segoe UI,sans-serif" font-size="12.5" font-weight="500" fill="#7a8694" text-anchor="start">Dashboard</text><circle cx="58" cy="208" r="8" fill="#cdd6e0"/><text x="78" y="212" font-family="Inter,Segoe UI,sans-serif" font-size="12.5" font-weight="500" fill="#7a8694" text-anchor="start">Data Karyawan</text><circle cx="58" cy="254" r="8" fill="#cdd6e0"/><text x="78" y="258" font-family="Inter,Segoe UI,sans-serif" font-size="12.5" font-weight="500" fill="#7a8694" text-anchor="start">Titik Lokasi</text><rect x="38" y="282" width="220" height="38" rx="10" fill="#e7ecf2"/><circle cx="58" cy="300" r="8" fill="#b8c2cd"/><text x="78" y="304" font-family="Inter,Segoe UI,sans-serif" font-size="12.5" font-weight="600" fill="#5b6675" text-anchor="start">Rekap &amp; Laporan</text><rect x="38" y="776" width="220" height="46" rx="12" fill="#e7ecf2" stroke="#e7ecf2" stroke-width="1.5"/><circle cx="62" cy="799" r="14" fill="#cdd6e0"/><rect x="84" y="792" width="90" height="9" rx="4.5" fill="#e7ecf2"/><rect x="84" y="806" width="60" height="7" rx="3.5" fill="#e7ecf2"/><rect x="292" y="66" width="964" height="56" rx="14" fill="#ffffff" stroke="#cbd5e1" stroke-width="1.5"/><text x="314" y="93" font-family="Inter,Segoe UI,sans-serif" font-size="16" font-weight="700" fill="#5b6675" text-anchor="start">Rekap &amp; Laporan</text><rect x="314" y="104" width="220" height="8" rx="4" fill="#e7ecf2"/><rect x="976" y="79" width="150" height="30" rx="15" fill="#e7ecf2" stroke="#e7ecf2" stroke-width="1.5"/><text x="994" y="98" font-family="Inter,Segoe UI,sans-serif" font-size="11" font-weight="500" fill="#7a8694" text-anchor="start">Cari...</text><circle cx="1166" cy="94" r="15" fill="#e7ecf2"/><circle cx="1210" cy="94" r="16" fill="#cdd6e0"/><rect x="292" y="142" width="964" height="96" rx="16" fill="#ffffff" stroke="#cbd5e1" stroke-width="1.5"/><rect x="316" y="172" width="80" height="8" rx="4" fill="#e7ecf2"/><rect x="316" y="184" width="180" height="38" rx="10" fill="#ffffff" stroke="#cbd5e1" stroke-width="1.5"/><rect x="536" y="172" width="80" height="8" rx="4" fill="#e7ecf2"/><rect x="536" y="184" width="180" height="38" rx="10" fill="#ffffff" stroke="#cbd5e1" stroke-width="1.5"/><rect x="756" y="172" width="80" height="8" rx="4" fill="#e7ecf2"/><rect x="756" y="184" width="180" height="38" rx="10" fill="#ffffff" stroke="#cbd5e1" stroke-width="1.5"/><rect x="936" y="184" width="130" height="38" rx="19" fill="#ffffff" stroke="#cbd5e1" stroke-width="1.5"/><text x="1001" y="207" font-family="Inter,Segoe UI,sans-serif" font-size="12" font-weight="600" fill="#7a8694" text-anchor="middle">Excel</text><rect x="1076" y="184" width="150" height="38" rx="19" fill="#b8c2cd" stroke="#b8c2cd" stroke-width="1.5"/><text x="1151" y="207" font-family="Inter,Segoe UI,sans-serif" font-size="12" font-weight="600" fill="#ffffff" text-anchor="middle">Cetak Laporan</text><rect x="292" y="258" width="229" height="96" rx="16" fill="#ffffff" stroke="#cbd5e1" stroke-width="1.5"/><rect x="310" y="276" width="38" height="38" rx="10" fill="#e7ecf2" stroke="#e7ecf2" stroke-width="1.5"/><rect x="310" y="330" width="60" height="16" rx="8" fill="#cdd6e0"/><text x="310" y="348" font-family="Inter,Segoe UI,sans-serif" font-size="10" font-weight="500" fill="#7a8694" text-anchor="start">Rata Kehadiran</text><rect x="537" y="258" width="229" height="96" rx="16" fill="#ffffff" stroke="#cbd5e1" stroke-width="1.5"/><rect x="555" y="276" width="38" height="38" rx="10" fill="#e7ecf2" stroke="#e7ecf2" stroke-width="1.5"/><rect x="555" y="330" width="60" height="16" rx="8" fill="#cdd6e0"/><text x="555" y="348" font-family="Inter,Segoe UI,sans-serif" font-size="10" font-weight="500" fill="#7a8694" text-anchor="start">Keterlambatan</text><rect x="782" y="258" width="229" height="96" rx="16" fill="#ffffff" stroke="#cbd5e1" stroke-width="1.5"/><rect x="800" y="276" width="38" height="38" rx="10" fill="#e7ecf2" stroke="#e7ecf2" stroke-width="1.5"/><rect x="800" y="330" width="60" height="16" rx="8" fill="#cdd6e0"/><text x="800" y="348" font-family="Inter,Segoe UI,sans-serif" font-size="10" font-weight="500" fill="#7a8694" text-anchor="start">Izin &amp; Sakit</text><rect x="1027" y="258" width="229" height="96" rx="16" fill="#ffffff" stroke="#cbd5e1" stroke-width="1.5"/><rect x="1045" y="276" width="38" height="38" rx="10" fill="#e7ecf2" stroke="#e7ecf2" stroke-width="1.5"/><rect x="1045" y="330" width="60" height="16" rx="8" fill="#cdd6e0"/><text x="1045" y="348" font-family="Inter,Segoe UI,sans-serif" font-size="10" font-weight="500" fill="#7a8694" text-anchor="start">Diverifikasi</text><rect x="292" y="378" width="964" height="394" rx="16" fill="#ffffff" stroke="#cbd5e1" stroke-width="1.5"/><text x="312" y="408" font-family="Inter,Segoe UI,sans-serif" font-size="13.5" font-weight="700" fill="#5b6675" text-anchor="start">Rekap Absensi — Mei 2026</text><rect x="1136" y="400" width="90" height="14" rx="7" fill="#e7ecf2"/><rect x="292" y="428" width="964" height="1" rx="0.5" fill="#e7ecf2"/><text x="314" y="452" font-family="Inter,Segoe UI,sans-serif" font-size="10" font-weight="600" fill="#7a8694" text-anchor="start">Karyawan</text><text x="474.66666666666663" y="452" font-family="Inter,Segoe UI,sans-serif" font-size="10" font-weight="600" fill="#7a8694" text-anchor="start">Departemen</text><text x="635.3333333333333" y="452" font-family="Inter,Segoe UI,sans-serif" font-size="10" font-weight="600" fill="#7a8694" text-anchor="start">Hadir</text><text x="796" y="452" font-family="Inter,Segoe UI,sans-serif" font-size="10" font-weight="600" fill="#7a8694" text-anchor="start">Telat</text><text x="956.6666666666666" y="452" font-family="Inter,Segoe UI,sans-serif" font-size="10" font-weight="600" fill="#7a8694" text-anchor="start">Izin</text><text x="1117.3333333333333" y="452" font-family="Inter,Segoe UI,sans-serif" font-size="10" font-weight="600" fill="#7a8694" text-anchor="start">Persentase</text><rect x="314" y="472" width="120.66666666666666" height="9" rx="4.5" fill="#e7ecf2"/><rect x="474.66666666666663" y="472" width="120.66666666666666" height="9" rx="4.5" fill="#e7ecf2"/><rect x="635.3333333333333" y="472" width="120.66666666666666" height="9" rx="4.5" fill="#e7ecf2"/><rect x="796" y="472" width="120.66666666666666" height="9" rx="4.5" fill="#e7ecf2"/><rect x="956.6666666666666" y="472" width="120.66666666666666" height="9" rx="4.5" fill="#e7ecf2"/><rect x="1117.3333333333333" y="472" width="120.66666666666666" height="9" rx="4.5" fill="#e7ecf2"/><rect x="314" y="512" width="120.66666666666666" height="9" rx="4.5" fill="#e7ecf2"/><rect x="474.66666666666663" y="512" width="120.66666666666666" height="9" rx="4.5" fill="#e7ecf2"/><rect x="635.3333333333333" y="512" width="120.66666666666666" height="9" rx="4.5" fill="#e7ecf2"/><rect x="796" y="512" width="120.66666666666666" height="9" rx="4.5" fill="#e7ecf2"/><rect x="956.6666666666666" y="512" width="120.66666666666666" height="9" rx="4.5" fill="#e7ecf2"/><rect x="1117.3333333333333" y="512" width="120.66666666666666" height="9" rx="4.5" fill="#e7ecf2"/><rect x="314" y="552" width="120.66666666666666" height="9" rx="4.5" fill="#e7ecf2"/><rect x="474.66666666666663" y="552" width="120.66666666666666" height="9" rx="4.5" fill="#e7ecf2"/><rect x="635.3333333333333" y="552" width="120.66666666666666" height="9" rx="4.5" fill="#e7ecf2"/><rect x="796" y="552" width="120.66666666666666" height="9" rx="4.5" fill="#e7ecf2"/><rect x="956.6666666666666" y="552" width="120.66666666666666" height="9" rx="4.5" fill="#e7ecf2"/><rect x="1117.3333333333333" y="552" width="120.66666666666666" height="9" rx="4.5" fill="#e7ecf2"/><rect x="314" y="592" width="120.66666666666666" height="9" rx="4.5" fill="#e7ecf2"/><rect x="474.66666666666663" y="592" width="120.66666666666666" height="9" rx="4.5" fill="#e7ecf2"/><rect x="635.3333333333333" y="592" width="120.66666666666666" height="9" rx="4.5" fill="#e7ecf2"/><rect x="796" y="592" width="120.66666666666666" height="9" rx="4.5" fill="#e7ecf2"/><rect x="956.6666666666666" y="592" width="120.66666666666666" height="9" rx="4.5" fill="#e7ecf2"/><rect x="1117.3333333333333" y="592" width="120.66666666666666" height="9" rx="4.5" fill="#e7ecf2"/><rect x="314" y="632" width="120.66666666666666" height="9" rx="4.5" fill="#e7ecf2"/><rect x="474.66666666666663" y="632" width="120.66666666666666" height="9" rx="4.5" fill="#e7ecf2"/><rect x="635.3333333333333" y="632" width="120.66666666666666" height="9" rx="4.5" fill="#e7ecf2"/><rect x="796" y="632" width="120.66666666666666" height="9" rx="4.5" fill="#e7ecf2"/><rect x="956.6666666666666" y="632" width="120.66666666666666" height="9" rx="4.5" fill="#e7ecf2"/><rect x="1117.3333333333333" y="632" width="120.66666666666666" height="9" rx="4.5" fill="#e7ecf2"/><rect x="314" y="672" width="120.66666666666666" height="9" rx="4.5" fill="#e7ecf2"/><rect x="474.66666666666663" y="672" width="120.66666666666666" height="9" rx="4.5" fill="#e7ecf2"/><rect x="635.3333333333333" y="672" width="120.66666666666666" height="9" rx="4.5" fill="#e7ecf2"/><rect x="796" y="672" width="120.66666666666666" height="9" rx="4.5" fill="#e7ecf2"/><rect x="956.6666666666666" y="672" width="120.66666666666666" height="9" rx="4.5" fill="#e7ecf2"/><rect x="1117.3333333333333" y="672" width="120.66666666666666" height="9" rx="4.5" fill="#e7ecf2"/>
</svg>